<svg width="1em" height="1em" viewBox="0 0 48 48" fill="none" xmlns="http://www.w3.org/2000/svg">
  <path fill-rule="evenodd" clip-rule="evenodd" d="M9.87868 9.87868C11.0503 8.70711 12.9497 8.70711 14.1213 9.87868L38.1213 33.8787C39.2929 35.0503 39.2929 36.9497 38.1213 38.1213C36.9497 39.2929 35.0503 39.2929 33.8787 38.1213L9.87868 14.1213C8.70711 12.9497 8.70711 11.0503 9.87868 9.87868Z" fill="#777D86"></path>
  <path fill-rule="evenodd" clip-rule="evenodd" d="M38.1213 9.87868C36.9497 8.70711 35.0503 8.70711 33.8787 9.87868L9.87868 33.8787C8.70711 35.0503 8.70711 36.9497 9.87868 38.1213C11.0503 39.2929 12.9497 39.2929 14.1213 38.1213L38.1213 14.1213C39.2929 12.9497 39.2929 11.0503 38.1213 9.87868Z" fill="#777D86"></path>
</svg>