<svg width="1em" height="1em" viewBox="0 0 48 48" fill="none" xmlns="http://www.w3.org/2000/svg">
  <path fill-rule="evenodd" clip-rule="evenodd" d="M4 24C4 22.3431 5.34315 21 7 21H41C42.6569 21 44 22.3431 44 24C44 25.6569 42.6569 27 41 27H7C5.34315 27 4 25.6569 4 24Z" fill="#FFFFFF"></path>
  <path fill-rule="evenodd" clip-rule="evenodd" d="M24.8016 8.95866C25.929 7.74453 27.8272 7.67422 29.0414 8.80163L43.0414 21.8016C43.6527 22.3693 44 23.1658 44 24C44 24.8342 43.6527 25.6308 43.0414 26.1984L29.0414 39.1984C27.8272 40.3258 25.929 40.2555 24.8016 39.0414C23.6742 37.8272 23.7445 35.929 24.9586 34.8016L36.5912 24L24.9586 13.1984C23.7445 12.071 23.6742 10.1728 24.8016 8.95866Z" fill="#FFFFFF"></path>
</svg>