<svg width="1em" height="1em" viewBox="0 0 48 48" fill="none" xmlns="http://www.w3.org/2000/svg">
  <path fill-rule="evenodd" clip-rule="evenodd" d="M24.0469 12C17.3847 12 12 17.3814 12 24C12 30.6186 17.3847 36 24.0469 36C29.1034 36 33.4335 32.8971 35.2204 28.4963C35.8438 26.9612 37.5935 26.2221 39.1287 26.8454C40.6638 27.4688 41.4029 29.2185 40.7796 30.7537C38.1022 37.3473 31.6198 42 24.0469 42C14.0887 42 6 33.9499 6 24C6 14.0501 14.0887 6 24.0469 6C28.619 6 32.8015 7.69976 35.9814 10.4977C37.2253 11.5922 37.3465 13.4878 36.252 14.7317C35.1575 15.9756 33.2619 16.0968 32.018 15.0023C29.8929 13.1325 27.1069 12 24.0469 12Z" fill="#3C424D"></path>
  <path d="M41 20V8L29 20H41Z" fill="#3C424D"></path>
  <path fill-rule="evenodd" clip-rule="evenodd" d="M41.7654 6.15224C42.5127 6.4618 43 7.19107 43 8V20C43 21.1046 42.1046 22 41 22H29C28.1911 22 27.4618 21.5127 27.1522 20.7654C26.8427 20.018 27.0138 19.1578 27.5858 18.5858L39.5858 6.58578C40.1578 6.01379 41.018 5.84268 41.7654 6.15224ZM33.8284 18H39V12.8284L33.8284 18Z" fill="#3C424D"></path>
</svg>