<svg
  width="1em"
  height="1em"
  viewBox="0 0 48 48"
  fill="none"
  xmlns="http://www.w3.org/2000/svg"
>
  <path
    fill-rule="evenodd"
    clip-rule="evenodd"
    d="M22.7609 7.38262C21.7258 4.94744 18.2742 4.94742 17.2391 7.38262L13.4765 16.2341L5.01347 20.2953C2.74403 21.3844 2.74403 24.6157 5.01347 25.7047L13.4765 29.7659L17.2391 38.6174C18.2742 41.0526 21.7258 41.0526 22.7609 38.6174L26.5235 29.7659L34.9865 25.7047C37.256 24.6157 37.256 21.3843 34.9865 20.2953L26.5235 16.2341L22.7609 7.38262ZM20 11.1125L22.9898 18.1461C23.2752 18.8173 23.7953 19.3616 24.4528 19.6772L31.3772 23L24.4528 26.3228C23.7953 26.6384 23.2752 27.1827 22.9898 27.8539L20 34.8876L17.0101 27.8539C16.7248 27.1827 16.2047 26.6384 15.5471 26.3228L8.62279 23L15.5471 19.6772C16.2047 19.3616 16.7248 18.8173 17.0101 18.1461L20 11.1125Z"
    fill="#4E5460"
  ></path>
  <path
    fill-rule="evenodd"
    clip-rule="evenodd"
    d="M43.5 34C43.5 33.1716 42.8284 32.5 42 32.5H34C33.1716 32.5 32.5 33.1716 32.5 34C32.5 34.8284 33.1716 35.5 34 35.5H42C42.8284 35.5 43.5 34.8284 43.5 34Z"
    fill="#4E5460"
  ></path>
  <path
    fill-rule="evenodd"
    clip-rule="evenodd"
    d="M38 28.5C37.1716 28.5 36.5 29.1716 36.5 30V38C36.5 38.8284 37.1716 39.5 38 39.5C38.8284 39.5 39.5 38.8284 39.5 38V30C39.5 29.1716 38.8284 28.5 38 28.5Z"
    fill="#4E5460"
  ></path>
  <path
    fill-rule="evenodd"
    clip-rule="evenodd"
    d="M43.5 12C43.5 11.1716 42.8284 10.5 42 10.5H34C33.1716 10.5 32.5 11.1716 32.5 12C32.5 12.8284 33.1716 13.5 34 13.5H42C42.8284 13.5 43.5 12.8284 43.5 12Z"
    fill="#4E5460"
  ></path>
  <path
    fill-rule="evenodd"
    clip-rule="evenodd"
    d="M38 6.5C37.1716 6.5 36.5 7.17157 36.5 8V16C36.5 16.8284 37.1716 17.5 38 17.5C38.8284 17.5 39.5 16.8284 39.5 16V8C39.5 7.17157 38.8284 6.5 38 6.5Z"
    fill="#4E5460"
  ></path>
</svg>
